<svg xmlns="http://www.w3.org/2000/svg" xmlns:xlink="http://www.w3.org/1999/xlink" width="480" zoomAndPan="magnify" viewBox="0 0 360 359.999987" height="480" preserveAspectRatio="xMidYMid meet" version="1.0"><defs><clipPath id="5dad595843"><path d="M 27 56.371094 L 289 56.371094 L 289 287.371094 L 27 287.371094 Z M 27 56.371094 " clip-rule="nonzero"/></clipPath><clipPath id="dbe8e6e299"><path d="M 180 202.042969 L 187.074219 202.042969 L 187.074219 212.910156 L 180 212.910156 Z M 180 202.042969 " clip-rule="nonzero"/></clipPath></defs><g clip-path="url(#5dad595843)"><path fill="#000000" d="M 125.730469 212.988281 C 128.191406 212.988281 129.820312 214.617188 129.820312 217.078125 C 129.820312 219.535156 128.191406 221.164062 125.730469 221.164062 L 54.976562 221.164062 C 52.515625 221.164062 50.886719 219.535156 50.886719 217.078125 C 50.886719 214.617188 52.515625 212.988281 54.976562 212.988281 Z M 31.273438 178.644531 L 102.027344 178.644531 C 104.488281 178.644531 106.117188 180.273438 106.117188 182.730469 C 106.117188 185.054688 104.664062 186.636719 102.429688 186.808594 L 102.027344 186.820312 L 31.273438 186.820312 C 28.8125 186.820312 27.183594 185.191406 27.183594 182.730469 C 27.183594 180.410156 28.636719 178.828125 30.871094 178.65625 L 31.273438 178.644531 L 102.027344 178.644531 Z M 54.976562 144.296875 L 125.730469 144.296875 C 128.191406 144.296875 129.820312 145.929688 129.820312 148.386719 C 129.820312 150.710938 128.367188 152.292969 126.132812 152.460938 L 125.730469 152.476562 L 54.976562 152.476562 C 52.53125 152.476562 50.886719 150.832031 50.886719 148.386719 C 50.886719 146.066406 52.339844 144.480469 54.574219 144.3125 L 54.976562 144.296875 L 125.730469 144.296875 Z M 277.398438 137.992188 C 284.535156 151.929688 288.496094 167.707031 288.496094 184.359375 C 288.496094 241.214844 242.277344 287.429688 185.425781 287.398438 C 158.03125 287.398438 132.261719 276.773438 112.628906 257.140625 C 111 255.511719 111 253.050781 112.628906 251.421875 C 114.257812 249.792969 116.71875 249.792969 118.347656 251.421875 C 136.332031 269.425781 160.054688 279.234375 185.40625 279.234375 C 237.757812 279.234375 280.28125 236.710938 280.28125 184.359375 C 280.28125 170.082031 277.078125 156.488281 271.335938 144.3125 Z M 264.859375 151.054688 C 269.277344 161.402344 271.722656 172.792969 271.722656 184.757812 C 271.722656 232.203125 233.289062 270.640625 185.839844 270.640625 C 168.269531 270.640625 151.496094 265.320312 137.183594 255.511719 C 135.136719 254.296875 134.722656 251.835938 135.953125 249.792969 C 137.183594 248.164062 139.644531 247.746094 142.085938 248.945312 C 154.753906 257.9375 169.898438 262.445312 185.839844 262.445312 C 228.78125 262.445312 263.542969 227.683594 263.542969 184.742188 C 263.542969 175.164062 261.8125 165.992188 258.648438 157.523438 Z M 263.792969 115.332031 C 267.4375 114.835938 270.992188 116.730469 272.601562 120.03125 C 274.21875 123.34375 273.519531 127.3125 270.882812 129.871094 C 240.800781 160.019531 219.0625 184.472656 188.628906 214.960938 C 185.511719 218.121094 180.496094 218.351562 177.105469 215.496094 L 140.230469 184.292969 C 138.492188 182.84375 137.40625 180.757812 137.21875 178.5 C 137.019531 176.238281 137.726562 174 139.191406 172.273438 C 140.652344 170.53125 142.746094 169.457031 144.996094 169.269531 C 147.253906 169.082031 149.492188 169.800781 151.222656 171.265625 L 182.066406 197.324219 C 209.167969 169.855469 230.429688 146.367188 258.828125 117.902344 C 260.144531 116.519531 261.894531 115.609375 263.789062 115.332031 Z M 185.839844 98.878906 C 207.507812 98.878906 227.296875 106.894531 242.402344 120.125 L 236.753906 126.023438 C 223.121094 114.195312 205.324219 107.042969 185.839844 107.042969 C 169.480469 107.042969 153.523438 111.960938 140.4375 121.769531 C 138.394531 123 135.949219 122.585938 134.71875 120.957031 C 133.492188 119.328125 133.90625 116.464844 135.535156 115.238281 C 150.265625 104.597656 167.851562 98.878906 185.839844 98.878906 Z M 204.246094 56.371094 C 206.707031 56.371094 208.335938 58 208.335938 60.460938 C 208.335938 62.78125 206.882812 64.367188 204.648438 64.535156 L 204.246094 64.550781 L 189.515625 64.550781 L 189.515625 81.722656 C 213.554688 82.519531 235.246094 91.566406 252.265625 106.15625 L 253.320312 107.074219 L 254.125 107.878906 L 248.417969 113.839844 C 231.488281 98.953125 209.402344 89.886719 185.410156 89.886719 C 159.242188 89.886719 134.707031 100.523438 116.304688 119.742188 C 114.675781 121.371094 112.214844 121.371094 110.585938 119.742188 C 108.953125 118.113281 108.953125 115.652344 110.585938 114.023438 C 129.0625 94.355469 153.433594 83.355469 179.867188 81.800781 L 181.335938 81.722656 L 181.335938 64.550781 L 167.023438 64.550781 C 164.5625 64.550781 162.933594 62.917969 162.933594 60.460938 C 162.933594 58.136719 164.386719 56.554688 166.621094 56.386719 L 167.023438 56.371094 Z M 204.246094 56.371094 " fill-opacity="1" fill-rule="evenodd"/></g><g clip-path="url(#dbe8e6e299)"><path fill="#232323" d="M 180 202.042969 L 187.074219 202.042969 L 187.074219 212.902344 L 180 212.902344 Z M 180 202.042969 " fill-opacity="1" fill-rule="nonzero"/></g></svg>